<svg width="124" height="128" viewBox="0 0 124 128" fill="none" xmlns="http://www.w3.org/2000/svg">
<path fill-rule="evenodd" clip-rule="evenodd" d="M122.189 64C122.189 98.7511 95.0905 126.924 61.6091 126.924C28.1277 126.924 1.0708 98.7511 1.0708 64C1.0708 29.2489 28.1689 1.117 61.6091 1.117C95.0493 1.117 122.189 29.2902 122.189 64Z" fill="white"/>
<path fill-rule="evenodd" clip-rule="evenodd" d="M2.14149 64C2.14149 29.9522 28.8278 2.19263 61.609 2.19263C94.3903 2.19263 121.118 29.9108 121.118 64C121.118 98.0892 94.4315 125.807 61.609 125.807C28.7866 125.807 2.14149 98.0892 2.14149 64ZM0 64C0 99.2889 27.6335 128 61.609 128C95.5846 128 123.218 99.2889 123.218 64C123.218 28.7111 95.5846 0 61.609 0C27.6335 0 0 28.7111 0 64Z" fill="#4066E9"/>
<path fill-rule="evenodd" clip-rule="evenodd" d="M100.815 57.5048C100.362 57.9185 99.8677 58.3323 99.2911 58.746C95.873 61.4764 90.5193 63.6277 83.0652 65.6962C67.5806 69.9987 56.379 70.6606 43.5712 73.8875C41.1003 74.5081 38.5058 75.3769 36.076 76.4111C38.5058 77.6522 41.0591 78.8106 43.6947 79.8449C48.8837 78.3141 51.3547 77.6109 58.8911 76.287C61.7327 75.7906 70.5457 74.1771 76.9702 72.7705C88.4601 70.2469 105.304 64.7033 100.815 57.4635V57.5048ZM93.402 42.4874C90.9723 41.329 87.8836 40.212 84.6302 39.3019C83.1888 40.5016 81.4591 41.5772 79.0705 42.5288C83.1064 43.2734 86.1539 44.4318 89.5721 45.4661C90.1898 45.797 92.949 43.1079 93.402 42.446V42.4874ZM37.0232 58.4564C52.0548 53.8643 67.8277 52.4577 83.8065 48.031C77.5468 46.2935 74.1286 45.5488 67.5394 46.3348C57.9439 47.4932 47.4012 49.6858 38.3822 52.4577C34.8405 53.5333 16.226 59.0356 21.5797 66.6891C21.5797 66.6891 24.792 62.1383 36.982 58.415L37.0232 58.4564ZM26.6452 84.8093C26.6452 86.2573 27.4688 87.4984 29.2809 89.0705C29.528 88.2844 29.8574 87.7466 30.3928 87.0019C29.1161 86.34 27.8807 85.5953 26.6452 84.8507V84.8093ZM33.6874 84.0646C34.7993 83.3613 36.1584 82.658 37.7233 82.0375C35.5818 81.1273 33.3991 80.1345 31.1753 79.0588C30.1457 79.7207 29.2809 80.3827 28.5396 81.1273C30.2281 82.1616 31.9166 83.1545 33.6874 84.106V84.0646ZM91.4665 50.8856C88.4189 52.3335 84.0948 53.8642 77.835 55.4777C72.7284 56.8015 60.2913 58.6632 46.907 61.6833C42.6652 62.6348 31.2165 65.448 25.5744 70.4124C27.1394 71.7363 28.1278 72.0672 29.8574 73.0601C32.2048 71.5294 35.3347 70.0401 40.0707 68.7162C48.266 66.4409 54.4022 65.448 61.7739 64.2482C69.1044 63.0485 82.8593 60.0284 90.5193 57.2153C92.9902 56.2637 95.2964 55.1054 97.0261 53.6988C96.4907 53.0782 91.59 50.596 91.4253 50.8442L91.4665 50.8856ZM95.9142 48.0724C97.3967 48.8171 98.7558 49.3962 100.074 50.3478C101.021 48.4861 100.444 47.2864 98.4675 45.5488C97.685 46.5003 96.8202 47.3277 95.9142 48.0724ZM25.9451 76.287C24.6272 75.501 23.6801 74.9632 22.5681 74.1357C21.9504 75.501 23.1035 77.0317 24.2978 77.735C24.792 77.1972 25.4097 76.7834 25.9451 76.287ZM89.9427 33.1791C89.6544 34.2547 88.5837 35.4544 87.8012 36.3232C90.0663 36.9438 92.3313 37.8125 94.514 38.6399C94.2669 36.5714 91.8783 34.5443 89.9015 33.1791H89.9427ZM19.1912 46.4589C34.9229 35.744 52.3431 29.4971 81.8709 34.7925C83.5182 33.7996 84.4243 32.8895 84.8361 30.8623C77.4644 28.0905 69.475 27.139 59.1382 27.3045C49.8309 27.5527 33.1108 31.1519 24.1742 36.6128L26.8923 33.0963C33.152 29.2902 49.4191 24.2431 61.6091 23.9948C70.2163 23.8293 74.664 24.3258 84.8773 27.1803C84.0124 25.3601 81.8709 24.4499 78.7822 23.0019C68.8984 18.3685 50.4075 17.9548 35.2523 24.8636C37.1879 23.5811 39.0411 22.3814 41.5121 21.1816C46.4952 18.8235 54.6905 16.5068 64.9037 16.6723C73.0579 16.7964 82.777 19.775 88.7072 25.8979C89.6956 27.0976 90.2722 28.3801 90.5193 29.4143C95.2141 31.8966 97.9321 34.2133 99.497 36.9438C100.115 38.309 100.403 39.8811 100.115 41.5772C102.05 42.8184 102.998 43.8112 103.945 45.1351C104.645 46.2521 105.18 47.5346 105.304 48.693C105.469 50.2237 105.633 51.9612 104.109 53.947C105.757 54.7744 106.992 57.0911 107.198 58.1254C107.939 61.8074 105.674 65.3652 102.627 68.1784C99.1676 71.3226 91.5488 75.0459 85.3303 76.7007C72.9755 79.9276 62.1033 81.2928 53.4138 82.9476C57.285 83.8992 62.5563 85.223 71.2047 85.223C89.6132 85.223 105.88 76.1629 105.88 76.1629C105.88 76.1629 105.51 77.3626 105.139 78.3969C93.4432 85.7608 74.8287 88.8636 66.9217 88.4913C58.8499 88.1189 52.0548 86.8778 45.4244 84.7266C43.3653 85.3057 41.3885 85.9677 39.453 86.8365C49.5838 91.5941 57.2026 92.6697 65.8509 93.3316C74.664 93.9935 89.2426 91.8009 101.597 87.1674C101.021 87.7466 100.733 88.6568 100.156 89.2359C93.855 92.6697 80.5119 96.1034 73.7992 96.393C67.1276 96.6826 59.0146 96.393 51.9312 95.0278C45.8362 93.828 40.8943 91.8009 35.6642 89.4428C34.717 90.1461 34.2228 91.0976 34.058 92.1319C54.3198 103.136 73.3462 103.385 94.967 96.393L92.9902 98.3788C69.1867 108.39 50.5722 104.502 36.1995 97.3032C35.7465 97.0963 35.17 96.8481 34.7581 96.5585C36.076 98.958 47.0717 107.315 59.3853 108.349C67.8689 109.052 78.2057 107.563 84.3419 104.998L80.759 106.942C77.7939 108.473 69.928 111.907 58.8911 111.162C44.2301 110.128 35.9524 103.385 32.246 99.8681C30.5163 98.2133 29.7339 96.3103 29.1985 93.9522C25.8627 92.1319 23.8036 90.2702 22.0739 87.4984C21.0444 85.8436 21.2503 84.0233 21.4974 82.4512C21.5797 81.9547 21.7033 81.4997 21.868 81.0446C20.2619 79.8449 18.6558 78.5624 17.9557 77.2799C16.5143 74.5494 17.3791 72.2327 18.4087 70.4124C17.5439 69.3781 16.7202 68.3439 16.3496 67.3096C15.9789 66.0685 15.8966 64.8688 16.0201 63.5449C16.3084 61.2695 17.4615 59.1597 18.9852 57.3394C22.1975 53.4919 27.2217 50.5132 35.8701 47.5346C44.3125 44.6387 47.7306 44.1836 54.1139 42.6529C61.568 40.8739 70.4634 40.2948 77.9174 37.6057C57.1614 33.7996 35.5818 37.2334 17.9969 49.8513L19.1912 46.3348V46.4589Z" fill="#4066E9"/>
</svg>
